<?xml version="1.0" encoding="UTF-8"?>
<svg version="1.1" xmlns="http://www.w3.org/2000/svg" width="120" height="120">
<path d="M0 0 C3.10076587 1.64209864 6.1297939 3.37219907 9.15283203 5.15332031 C10.24297607 5.78165771 11.33312012 6.40999512 12.45629883 7.05737305 C15.71971224 8.94717108 18.96842486 10.86033523 22.21533203 12.77832031 C23.62443848 13.59888916 23.62443848 13.59888916 25.06201172 14.43603516 C27.55885341 15.89091319 30.04568306 17.36104267 32.52783203 18.84082031 C33.25542725 19.26862793 33.98302246 19.69643555 34.73266602 20.13720703 C39.68840567 23.15622769 43.31579477 26.07970853 45.21533203 31.77832031 C45.31758996 33.44898869 45.36375277 35.12337248 45.37646484 36.79711914 C45.38607239 37.8186055 45.39567993 38.84009186 45.40557861 39.89253235 C45.40982849 40.99566269 45.41407837 42.09879303 45.41845703 43.23535156 C45.4241571 44.37107101 45.42985718 45.50679047 45.43572998 46.67692566 C45.44518156 49.08188952 45.45171459 51.48686635 45.45556641 53.8918457 C45.46526604 57.56582319 45.49628629 61.23923991 45.52783203 64.91308594 C45.53436275 67.24967116 45.53961295 69.58626038 45.54345703 71.92285156 C45.55580383 73.01990921 45.56815063 74.11696686 45.58087158 75.24726868 C45.56221955 81.65464891 45.3237539 86.58304969 40.625 91.41308594 C34.44377526 95.79769755 27.93294913 99.54878264 21.34033203 103.27832031 C19.09246821 104.55874907 16.84506571 105.8399881 14.59814453 107.12207031 C13.52209961 107.734375 12.44605469 108.34667969 11.33740234 108.97753906 C7.59804284 111.134367 3.90910173 113.36693886 0.234375 115.63183594 C-3.95050074 118.00815716 -8.08289277 118.59729814 -12.78466797 117.77832031 C-15.1887207 116.66699219 -15.1887207 116.66699219 -17.78076172 115.18457031 C-18.74675293 114.63921631 -19.71274414 114.0938623 -20.70800781 113.53198242 C-22.23095459 112.66391968 -22.23095459 112.66391968 -23.78466797 111.77832031 C-25.84717839 110.64185839 -27.91100052 109.50777404 -29.97607422 108.37597656 C-32.100144 107.19826157 -34.22383927 106.01987089 -36.34716797 104.84082031 C-37.40613281 104.25880859 -38.46509766 103.67679687 -39.55615234 103.07714844 C-60.17583074 91.60483199 -60.17583074 91.60483199 -62.78466797 83.77832031 C-62.8869259 82.10765194 -62.93308871 80.43326815 -62.94580078 78.75952148 C-62.95540833 77.73803513 -62.96501587 76.71654877 -62.97491455 75.66410828 C-62.97916443 74.56097794 -62.98341431 73.4578476 -62.98779297 72.32128906 C-62.99349304 71.18556961 -62.99919312 70.04985016 -63.00506592 68.87971497 C-63.0145175 66.4747511 -63.02105052 64.06977427 -63.02490234 61.66479492 C-63.03460197 57.99081743 -63.06562223 54.31740071 -63.09716797 50.64355469 C-63.10369869 48.30696947 -63.10894889 45.97038025 -63.11279297 43.63378906 C-63.12513977 42.53673141 -63.13748657 41.43967377 -63.15020752 40.30937195 C-63.12150768 30.45035052 -63.12150768 30.45035052 -59.78466797 25.77832031 C-56.52914311 22.75895988 -52.94646143 20.58505943 -49.10107422 18.38769531 C-48.0144751 17.7639502 -46.92787598 17.14020508 -45.80834961 16.49755859 C-44.0950647 15.52278564 -44.0950647 15.52278564 -42.34716797 14.52832031 C-41.17045671 13.85532583 -39.99394357 13.18198483 -38.81762695 12.50830078 C-36.51488005 11.19023582 -34.21072435 9.87474521 -31.90576172 8.56054688 C-29.28773519 7.06558492 -26.67474663 5.56268497 -24.06591797 4.05175781 C-23.41937256 3.67825195 -22.77282715 3.30474609 -22.10668945 2.91992188 C-20.47961435 1.97984407 -18.85283131 1.03926082 -17.22607422 0.09863281 C-11.35856768 -3.07451473 -5.98020841 -2.62361589 0 0 Z " fill="#EFF2F3" transform="translate(68.78466796875,2.2216796875)"/>
<path d="M0 0 C7.41869104 3.44750937 14.4925108 7.35134348 21.5 11.5625 C22.27714355 12.02116455 23.05428711 12.4798291 23.85498047 12.95239258 C29.05773307 16.12227031 32.99980346 18.99941037 35 25 C35.10225793 26.67066837 35.14842074 28.34505216 35.16113281 30.01879883 C35.17074036 31.04028519 35.1803479 32.06177155 35.19024658 33.11421204 C35.19449646 34.21734238 35.19874634 35.32047272 35.203125 36.45703125 C35.20882507 37.5927507 35.21452515 38.72847015 35.22039795 39.89860535 C35.22984953 42.30356921 35.23638256 44.70854604 35.24023438 47.11352539 C35.24993401 50.78750288 35.28095426 54.4609196 35.3125 58.13476562 C35.31903072 60.47135084 35.32428092 62.80794007 35.328125 65.14453125 C35.3404718 66.2415889 35.3528186 67.33864655 35.36553955 68.46894836 C35.34688752 74.8763286 35.10842187 79.80472938 30.40966797 84.63476562 C24.22844323 89.01937723 17.7176171 92.77046232 11.125 96.5 C8.87713617 97.78042876 6.62973368 99.06166779 4.3828125 100.34375 C3.30676758 100.95605469 2.23072266 101.56835938 1.12207031 102.19921875 C-2.61728919 104.35604669 -6.3062303 106.58861855 -9.98095703 108.85351562 C-14.16583277 111.22983684 -18.2982248 111.81897782 -23 111 C-25.40405273 109.88867188 -25.40405273 109.88867188 -27.99609375 108.40625 C-28.96208496 107.860896 -29.92807617 107.31554199 -30.92333984 106.75366211 C-32.44628662 105.88559937 -32.44628662 105.88559937 -34 105 C-36.06251042 103.86353808 -38.12633255 102.72945373 -40.19140625 101.59765625 C-42.31547603 100.41994125 -44.4391713 99.24155057 -46.5625 98.0625 C-47.62146484 97.48048828 -48.68042969 96.89847656 -49.77148438 96.29882812 C-70.39116277 84.82651168 -70.39116277 84.82651168 -73 77 C-73.0833804 74.86205475 -73.10733747 72.72157991 -73.09765625 70.58203125 C-73.09443359 69.32841797 -73.09121094 68.07480469 -73.08789062 66.78320312 C-73.07951172 65.47287109 -73.07113281 64.16253906 -73.0625 62.8125 C-73.05748317 61.47721519 -73.05292059 60.14192859 -73.04882812 58.80664062 C-73.03702695 55.53771527 -73.02056297 52.26888009 -73 49 C-72.4121875 49.32742187 -71.824375 49.65484375 -71.21875 49.9921875 C-68.09844539 51.40950896 -65.39272506 51.12116875 -62 51 C-60.33333333 51 -58.66666667 51 -57 51 C-57.09539063 51.59312988 -57.19078125 52.18625977 -57.2890625 52.79736328 C-58.19993595 59.63818174 -58.74092817 66.52751494 -56 73 C-50.33863329 78.90158382 -42.56468524 82.14343967 -35.20849609 85.46044922 C-30.79212094 87.57958342 -26.69850578 90.15109073 -22.56958008 92.77954102 C-20.17505438 94.16769635 -20.17505438 94.16769635 -18.02124023 93.89135742 C-15.30195722 92.69216642 -12.77347375 91.29088512 -10.203125 89.796875 C-9.0790625 89.14589844 -7.955 88.49492188 -6.796875 87.82421875 C-6.21357422 87.48310059 -5.63027344 87.14198242 -5.02929688 86.79052734 C-3.27230661 85.76304484 -1.51160823 84.74219689 0.25 83.72265625 C3.50891309 81.82906405 6.76352195 79.93171476 10 78 C10.70850098 77.67075027 11.41700195 77.34150055 12.14697266 77.00227356 C16.41130334 74.87728717 16.41130334 74.87728717 18.69036865 70.89846802 C18.92813888 68.26424168 18.90051419 65.74770871 18.78125 63.10546875 C18.76427063 61.68443596 18.76427063 61.68443596 18.74694824 60.23469543 C18.70225857 57.21688221 18.60191575 54.20386957 18.5 51.1875 C18.45986315 49.13874064 18.42336273 47.08990658 18.390625 45.04101562 C18.30254763 40.02550177 18.16455553 35.01356384 18 30 C15.69 28.68 13.38 27.36 11 26 C11 21.05 11 16.1 11 11 C7.04 11 3.08 11 -1 11 C-1 13.31 -1 15.62 -1 18 C-3.31 16.68 -5.62 15.36 -8 14 C-7.37609375 13.92910156 -6.7521875 13.85820312 -6.109375 13.78515625 C-3.80770679 13.19995468 -3.80770679 13.19995468 -2.953125 10.93359375 C-2.72109375 10.10988281 -2.4890625 9.28617188 -2.25 8.4375 C-1.88648437 7.19806641 -1.88648437 7.19806641 -1.515625 5.93359375 C-1.34546875 5.29550781 -1.1753125 4.65742188 -1 4 C-0.34 4 0.32 4 1 4 C0.505 2.02 0.505 2.02 0 0 Z " fill="#004A49" transform="translate(79,9)"/>
<path d="M0 0 C9.24792971 5.11303806 9.24792971 5.11303806 10.8125 10.546875 C10.1525 10.546875 9.4925 10.546875 8.8125 10.546875 C8.70292969 11.18496094 8.59335938 11.82304687 8.48046875 12.48046875 C8.24263672 13.71990234 8.24263672 13.71990234 8 14.984375 C7.77376953 16.21994141 7.77376953 16.21994141 7.54296875 17.48046875 C7.18138672 18.50333984 7.18138672 18.50333984 6.8125 19.546875 C2.60145189 20.9505577 0.73758225 19.40612449 -3.1875 17.546875 C-3.88875 17.134375 -4.59 16.721875 -5.3125 16.296875 C-7.98980504 15.22595298 -9.40817549 15.77349353 -12.1875 16.546875 C-14.47206304 17.72633555 -16.64725391 18.93408668 -18.84375 20.2578125 C-19.4685022 20.6266153 -20.09325439 20.99541809 -20.73693848 21.37539673 C-22.7245319 22.55084019 -24.70601688 23.7361663 -26.6875 24.921875 C-28.01914121 25.71159557 -29.35116892 26.5006648 -30.68359375 27.2890625 C-34.19009435 29.36638652 -37.69023171 31.45404287 -41.1875 33.546875 C-42.13665283 34.02455322 -43.08580566 34.50223145 -44.0637207 34.99438477 C-46.38158471 36.35321255 -46.38158471 36.35321255 -46.81518555 38.78344727 C-46.8181665 39.63479248 -46.82114746 40.4861377 -46.82421875 41.36328125 C-46.84419922 42.29205078 -46.86417969 43.22082031 -46.88476562 44.17773438 C-46.87993164 45.62889648 -46.87993164 45.62889648 -46.875 47.109375 C-46.89154595 49.02743193 -46.9158998 50.94544236 -46.94921875 52.86328125 C-46.94881592 53.71349854 -46.94841309 54.56371582 -46.94799805 55.43969727 C-47.1875 57.546875 -47.1875 57.546875 -49.1875 59.546875 C-52 59.234375 -52 59.234375 -55.1875 58.546875 C-56.074375 58.4025 -56.96125 58.258125 -57.875 58.109375 C-60.1875 57.546875 -60.1875 57.546875 -63.1875 55.546875 C-63.57568359 53.21191406 -63.57568359 53.21191406 -63.5859375 50.3125 C-63.58980469 49.26320312 -63.59367187 48.21390625 -63.59765625 47.1328125 C-63.58605469 46.03195313 -63.57445312 44.93109375 -63.5625 43.796875 C-63.57410156 42.71148437 -63.58570313 41.62609375 -63.59765625 40.5078125 C-63.55996268 30.23003278 -63.55996268 30.23003278 -60.1875 25.546875 C-56.82674845 22.6526218 -53.3498091 20.35390877 -49.50390625 18.15625 C-48.41730713 17.53250488 -47.33070801 16.90875977 -46.21118164 16.26611328 C-44.49789673 15.29134033 -44.49789673 15.29134033 -42.75 14.296875 C-41.57328874 13.62388052 -40.3967756 12.95053951 -39.22045898 12.27685547 C-36.91771208 10.9587905 -34.61355638 9.6432999 -32.30859375 8.32910156 C-29.69056722 6.83413961 -27.07757866 5.33123965 -24.46875 3.8203125 C-23.82220459 3.44680664 -23.17565918 3.07330078 -22.50952148 2.68847656 C-20.88244638 1.74839876 -19.25566334 0.8078155 -17.62890625 -0.1328125 C-11.51358805 -3.43997658 -6.15178727 -2.80449125 0 0 Z " fill="#69246E" transform="translate(69.1875,2.453125)"/>
<path d="M0 0 C0.32338703 4.83741072 0.55803078 9.66845939 0.71411133 14.51416016 C0.77918099 16.15817831 0.86768697 17.80145253 0.98071289 19.44287109 C1.70769426 30.27851199 1.70769426 30.27851199 0 35 C-3.8000202 38.92742869 -8.03423295 40.84381631 -13 43 C-14.6560497 43.9613294 -16.29804711 44.94771686 -17.91796875 45.96875 C-19.34039916 46.81375816 -20.76355159 47.65755238 -22.1875 48.5 C-22.92291016 48.94085938 -23.65832031 49.38171875 -24.41601562 49.8359375 C-29.76642566 53 -29.76642566 53 -32 53 C-36.34778876 24.20187171 -36.34778876 24.20187171 -30.77526855 16.25299072 C-23.69568044 8.83173931 -13.34915985 4.7386848 -4 1 C-2 0 -2 0 0 0 Z " fill="#024551" transform="translate(94,45)"/>
<path d="M0 0 C2.76486099 1.31467771 5.33733822 2.8244983 7.9453125 4.43017578 C8.50963486 4.77678253 9.07395721 5.12338928 9.65538025 5.48049927 C10.84450951 6.2126239 12.03202699 6.94737209 13.21801758 7.68457031 C15.02838682 8.80878456 16.84475873 9.92276007 18.66210938 11.03564453 C19.81938303 11.74988489 20.97629645 12.46470933 22.1328125 13.18017578 C23.18090088 13.82841309 24.22898926 14.47665039 25.30883789 15.14453125 C27.49719332 16.61787549 29.22173608 17.98632807 30.97265625 19.93798828 C25.67780542 24.00147845 25.67780542 24.00147845 22.52685547 23.71777344 C19.90021555 22.91587247 18.06151525 21.93250815 15.79296875 20.39892578 C15.02855469 19.90134766 14.26414063 19.40376953 13.4765625 18.89111328 C11.89242547 17.84022435 10.3142356 16.78031421 8.7421875 15.71142578 C4.91945523 13.2443179 2.82315043 11.9344847 -1.8203125 11.95361328 C-4.68813032 12.83386918 -6.95250733 13.69686544 -9.46484375 15.31298828 C-10.14417969 15.73322266 -10.82351562 16.15345703 -11.5234375 16.58642578 C-12.01972656 17.03244141 -12.51601563 17.47845703 -13.02734375 17.93798828 C-13.02734375 18.92798828 -13.02734375 19.91798828 -13.02734375 20.93798828 C-11.48443407 22.24245282 -11.48443407 22.24245282 -9.4140625 23.31298828 C-8.66060547 23.74095703 -7.90714844 24.16892578 -7.13085938 24.60986328 C-6.33357422 25.04814453 -5.53628906 25.48642578 -4.71484375 25.93798828 C-3.1538775 26.80874878 -1.59519043 27.68361046 -0.0390625 28.56298828 C0.65743408 28.94712891 1.35393066 29.33126953 2.0715332 29.72705078 C3.9902784 30.94921287 5.43284616 32.27209251 6.97265625 33.93798828 C1.6812863 37.99880708 1.6812863 37.99880708 -1.40258789 37.73413086 C-4.3199127 36.84924608 -6.68909581 35.6499929 -9.3359375 34.13720703 C-10.33044922 33.57195313 -11.32496094 33.00669922 -12.34960938 32.42431641 C-13.37763672 31.83070312 -14.40566406 31.23708984 -15.46484375 30.62548828 C-16.48900391 30.04347656 -17.51316406 29.46146484 -18.56835938 28.86181641 C-23.5041686 26.0408976 -28.35752398 23.18203117 -33.02734375 19.93798828 C-30.36633891 16.9420851 -27.13097606 14.97088037 -23.75 12.89111328 C-23.14224228 12.51565369 -22.53448456 12.14019409 -21.90830994 11.75335693 C-20.62629846 10.96436036 -19.34278011 10.17780766 -18.05786133 9.39355469 C-16.09279267 8.18979473 -14.13934073 6.96853232 -12.18554688 5.74658203 C-10.93687519 4.98115315 -9.68754759 4.21679305 -8.4375 3.45361328 C-7.85509048 3.08600891 -7.27268097 2.71840454 -6.67262268 2.33966064 C-2.64317011 -0.08084841 -2.64317011 -0.08084841 0 0 Z " fill="#632B6D" transform="translate(61.02734375,21.06201171875)"/>
<path d="M0 0 C3.40312738 1.05875074 6.01353231 2.00902154 9 4 C9.34057617 6.70556641 9.34057617 6.70556641 9.29296875 10.1015625 C9.28330078 11.31328125 9.27363281 12.525 9.26367188 13.7734375 C9.23853516 15.04445313 9.21339844 16.31546875 9.1875 17.625 C9.17396484 18.90375 9.16042969 20.1825 9.14648438 21.5 C9.11103196 24.66708282 9.06161441 27.83333541 9 31 C11.475 31.99 11.475 31.99 14 33 C17.3 34.65 20.6 36.3 24 38 C24 30.08 24 22.16 24 14 C30 16 30 16 32 17 C32 28.88 32 40.76 32 53 C28.27433875 51.5097355 25.08121461 50.02069132 21.62109375 48.06640625 C20.11579102 47.2165918 20.11579102 47.2165918 18.58007812 46.34960938 C17.54302734 45.75986328 16.50597656 45.17011719 15.4375 44.5625 C14.39658203 43.97662109 13.35566406 43.39074219 12.28320312 42.78710938 C6.49933328 39.51020305 6.49933328 39.51020305 4 38 C3.23985596 37.60570801 2.47971191 37.21141602 1.6965332 36.80517578 C-0.98571789 33.95115871 -0.49253186 30.75335575 -0.390625 27.05078125 C-0.38496521 26.27816452 -0.37930542 25.50554779 -0.37347412 24.70951843 C-0.35109327 22.24321371 -0.30089703 19.77836508 -0.25 17.3125 C-0.22993706 15.63999495 -0.21168592 13.96746711 -0.1953125 12.29492188 C-0.15122331 8.19605404 -0.08218675 4.09827383 0 0 Z " fill="#024351" transform="translate(26,45)"/>
<path d="M0 0 C2.97 0.99 5.94 1.98 9 3 C9 10.26 9 17.52 9 25 C2.58222222 23.39555556 2.58222222 23.39555556 0 21 C-0.64104659 17.42732828 -0.46758896 13.92726573 -0.3125 10.3125 C-0.28994141 9.32443359 -0.26738281 8.33636719 -0.24414062 7.31835938 C-0.18520105 4.87826093 -0.09551986 2.43894039 0 0 Z " fill="#534F76" transform="translate(38,52)"/>
<path d="M0 0 C2.84867698 1.48112395 5.53407182 3.22684912 8.25 4.9375 C9.36761719 5.62102539 9.36761719 5.62102539 10.5078125 6.31835938 C11.21164063 6.75857422 11.91546875 7.19878906 12.640625 7.65234375 C13.28547852 8.05445068 13.93033203 8.45655762 14.59472656 8.87084961 C15.0584668 9.24346924 15.52220703 9.61608887 16 10 C16 10.66 16 11.32 16 12 C13.57735605 13.86889676 11.96193874 15.04530871 8.84375 14.8984375 C4.69345004 13.58721636 1.32045366 11.29778356 -2.3125 8.9375 C-3.05306641 8.46505859 -3.79363281 7.99261719 -4.55664062 7.50585938 C-6.37551219 6.34412851 -8.1883659 5.17298518 -10 4 C-4.64236833 -1.53621939 -4.64236833 -1.53621939 0 0 Z " fill="#443465" transform="translate(63,37)"/>
<path d="M0 0 C6.00295033 1.55486254 10.73574573 4.78912863 15.875 8.125 C16.75414063 8.68832031 17.63328125 9.25164063 18.5390625 9.83203125 C20.69650085 11.21560584 22.84992109 12.60502727 25 14 C22.87265475 16.53645011 21.34101948 17.87551597 18.20703125 19.01953125 C13.72627743 18.99224286 11.28150929 17.20066107 7.6875 14.6875 C7.05521484 14.27048828 6.42292969 13.85347656 5.77148438 13.42382812 C1.1636085 10.32721701 1.1636085 10.32721701 0 8 C2.31 8.33 4.62 8.66 7 9 C5.98901678 5.59942009 5.38417244 4.25611496 2.375 2.25 C1.59125 1.8375 0.8075 1.425 0 1 C0 0.67 0 0.34 0 0 Z " fill="#054357" transform="translate(67,26)"/>
<path d="M0 0 C6 2 6 2 9 4 C9.34057617 6.61376953 9.34057617 6.61376953 9.29296875 9.8828125 C9.28330078 11.04941406 9.27363281 12.21601562 9.26367188 13.41796875 C9.23853516 14.64128906 9.21339844 15.86460938 9.1875 17.125 C9.17396484 18.35605469 9.16042969 19.58710937 9.14648438 20.85546875 C9.11103543 23.90407843 9.06162079 26.951825 9 30 C8.67 30 8.34 30 8 30 C8 26.04 8 22.08 8 18 C6.35 18.33 4.7 18.66 3 19 C2.67 18.01 2.34 17.02 2 16 C1.34 16 0.68 16 0 16 C0 10.72 0 5.44 0 0 Z " fill="#50406E" transform="translate(26,45)"/>
<path d="M0 0 C0.58984375 1.91796875 0.58984375 1.91796875 1 4 C0.525625 4.433125 0.05125 4.86625 -0.4375 5.3125 C-2.39862764 7.06873485 -2.39862764 7.06873485 -2.1875 10.6875 C-2.125625 11.780625 -2.06375 12.87375 -2 14 C-3.32 13.67 -4.64 13.34 -6 13 C-6.33 21.91 -6.66 30.82 -7 40 C-7.33 40 -7.66 40 -8 40 C-8.19822574 35.10725504 -8.34312625 30.21685831 -8.43945312 25.32104492 C-8.47961164 23.6572193 -8.53415464 21.99367478 -8.60351562 20.33081055 C-9.16852951 6.43396162 -9.16852951 6.43396162 -6.18359375 2.77099609 C-4.12832496 1.4864531 -2.3339386 0.62986083 0 0 Z " fill="#2E536F" transform="translate(70,58)"/>
<path d="M0 0 C0.33 0.66 0.66 1.32 1 2 C2.94603274 2.59070014 2.94603274 2.59070014 5 3 C5.66 3.33 6.32 3.66 7 4 C7 7.3 7 10.6 7 14 C2.25 12.125 2.25 12.125 0 11 C0 7.37 0 3.74 0 0 Z " fill="#093A57" transform="translate(39,63)"/>
<path d="M0 0 C-1.48733526 4.04836816 -3.69413593 5.28137826 -7.4375 7.25 C-8.40558594 7.77078125 -9.37367187 8.2915625 -10.37109375 8.828125 C-13 10 -13 10 -16 10 C-15.8671875 8.23828125 -15.8671875 8.23828125 -15 6 C-12.3828125 4.04296875 -12.3828125 4.04296875 -9.125 2.1875 C-8.05507812 1.56230469 -6.98515625 0.93710938 -5.8828125 0.29296875 C-3 -1 -3 -1 0 0 Z " fill="#E3EDEE" transform="translate(87,73)"/>
<path d="M0 0 C6 2 6 2 8 4 C7.625 6.625 7.625 6.625 7 9 C5.35 8.67 3.7 8.34 2 8 C1.67 12.95 1.34 17.9 1 23 C0.67 23 0.34 23 0 23 C0 15.41 0 7.82 0 0 Z " fill="#444D71" transform="translate(50,59)"/>
<path d="M0 0 C-0.1640625 1.76171875 -0.1640625 1.76171875 -1 4 C-3.3984375 5.95703125 -3.3984375 5.95703125 -6.375 7.8125 C-7.35210937 8.43769531 -8.32921875 9.06289062 -9.3359375 9.70703125 C-12 11 -12 11 -15 10 C-15 9.01 -15 8.02 -15 7 C-12.48046875 5.17578125 -12.48046875 5.17578125 -9.1875 3.3125 C-7.56908203 2.37857422 -7.56908203 2.37857422 -5.91796875 1.42578125 C-3 0 -3 0 0 0 Z " fill="#EAF0F1" transform="translate(86,60)"/>
<path d="M0 0 C1.32 0.66 2.64 1.32 4 2 C3.01 4.31 2.02 6.62 1 9 C3.97 9.33 6.94 9.66 10 10 C10 10.33 10 10.66 10 11 C6.37 11 2.74 11 -1 11 C-1 13.31 -1 15.62 -1 18 C-4.465 16.02 -4.465 16.02 -8 14 C-7.06414062 13.89365234 -7.06414062 13.89365234 -6.109375 13.78515625 C-3.80770679 13.19995468 -3.80770679 13.19995468 -2.953125 10.93359375 C-2.72109375 10.10988281 -2.4890625 9.28617188 -2.25 8.4375 C-2.00765625 7.61121094 -1.7653125 6.78492188 -1.515625 5.93359375 C-1.34546875 5.29550781 -1.1753125 4.65742188 -1 4 C-0.34 4 0.32 4 1 4 C0.67 2.68 0.34 1.36 0 0 Z " fill="#315470" transform="translate(79,9)"/>
<path d="M0 0 C5.31027254 1.46032495 9.46330032 3.98320986 14 7 C12.68 7.33 11.36 7.66 10 8 C9.67 9.65 9.34 11.3 9 13 C5.00095031 13 3.19799578 11.27413033 0 9 C2.33333333 9 4.66666667 9 7 9 C5.98901678 5.59942009 5.38417244 4.25611496 2.375 2.25 C1.59125 1.8375 0.8075 1.425 0 1 C0 0.67 0 0.34 0 0 Z " fill="#293E62" transform="translate(67,26)"/>
<path d="M0 0 C0.7734375 0.495 0.7734375 0.495 1.5625 1 C4.80325117 2.32953894 7.52215357 2.1242088 11 2 C12.32 2 13.64 2 15 2 C15.33 3.32 15.66 4.64 16 6 C10.72 5.67 5.44 5.34 0 5 C0 3.35 0 1.7 0 0 Z " fill="#16385A" transform="translate(6,58)"/>
<path d="M0 0 C2.96175123 0.61277612 4.38058783 1.25372522 7 3 C7 3.66 7 4.32 7 5 C2.84732824 8.11450382 2.84732824 8.11450382 -0.3125 7.6875 C-0.869375 7.460625 -1.42625 7.23375 -2 7 C-1.34 4.69 -0.68 2.38 0 0 Z " fill="#0A3D5A" transform="translate(72,44)"/>
<path d="M0 0 C0.66 0.33 1.32 0.66 2 1 C1.979375 1.928125 1.95875 2.85625 1.9375 3.8125 C1.84230396 7.02286011 1.84230396 7.02286011 3 10 C1.8125 11.5625 1.8125 11.5625 0 13 C-2.6875 12.6875 -2.6875 12.6875 -5 12 C-5 11.34 -5 10.68 -5 10 C-3.68 10.33 -2.36 10.66 -1 11 C-1.20625 9.9275 -1.4125 8.855 -1.625 7.75 C-1.9876191 4.12380904 -1.98362069 2.91708924 0 0 Z " fill="#153A5B" transform="translate(69,61)"/>
<path d="M0 0 C1.32 0 2.64 0 4 0 C4 2.97 4 5.94 4 9 C2.68 8.34 1.36 7.68 0 7 C0 4.69 0 2.38 0 0 Z " fill="#1F596D" transform="translate(82,23)"/>
<path d="M0 0 C0.33 0 0.66 0 1 0 C0.67 2.97 0.34 5.94 0 9 C-1.65 8.67 -3.3 8.34 -5 8 C-5.33 6.02 -5.66 4.04 -6 2 C-5.34 2.66 -4.68 3.32 -4 4 C-1.93125966 4.6425235 -1.93125966 4.6425235 0 5 C0 3.35 0 1.7 0 0 Z " fill="#1A3258" transform="translate(57,63)"/>
<path d="M0 0 C0.33 1.32 0.66 2.64 1 4 C0.01 3.67 -0.98 3.34 -2 3 C-2.28875 3.639375 -2.5775 4.27875 -2.875 4.9375 C-4 7 -4 7 -6 8 C-6.33 6.68 -6.66 5.36 -7 4 C-4.69 2.68 -2.38 1.36 0 0 Z " fill="#313D63" transform="translate(70,58)"/>
<path d="M0 0 C0.66 0 1.32 0 2 0 C2 2.31 2 4.62 2 7 C-1.465 5.02 -1.465 5.02 -5 3 C-4.360625 2.87625 -3.72125 2.7525 -3.0625 2.625 C-2.0415625 2.315625 -2.0415625 2.315625 -1 2 C-0.67 1.34 -0.34 0.68 0 0 Z " fill="#334467" transform="translate(76,20)"/>
<path d="M0 0 C0.99 0.33 1.98 0.66 3 1 C2.67 1.33 2.34 1.66 2 2 C1.95919217 3.99958364 1.95745644 6.00045254 2 8 C0.68 7.67 -0.64 7.34 -2 7 C-1.34 4.69 -0.68 2.38 0 0 Z " fill="#203C5E" transform="translate(72,44)"/>
<path d="M0 0 C0.61875 0.33 1.2375 0.66 1.875 1 C3.91018344 2.14193235 3.91018344 2.14193235 6 2 C6 3.32 6 4.64 6 6 C4.35 5.67 2.7 5.34 1 5 C0.67 3.35 0.34 1.7 0 0 Z " fill="#18375A" transform="translate(27,61)"/>
<path d="M0 0 C0.66 0.33 1.32 0.66 2 1 C1.34 2.32 0.68 3.64 0 5 C0.66 5 1.32 5 2 5 C1.67 5.66 1.34 6.32 1 7 C-0.65 5.68 -2.3 4.36 -4 3 C-2.68 2.01 -1.36 1.02 0 0 Z " fill="#663472" transform="translate(57,37)"/>
</svg>
