<?xml version="1.0" encoding="UTF-8"?>
<svg version="1.1" xmlns="http://www.w3.org/2000/svg" width="360" height="360">
<path d="M0 0 C7.66898236 2.83134891 14.54280516 7.50867061 21.34082031 11.96777344 C23.94147541 13.67354473 26.56223066 15.33996551 29.19775391 16.99121094 C32.35310811 18.96822625 35.49994616 20.95742263 38.63916016 22.95996094 C45.04448841 27.02843715 51.56282131 30.90748682 58.09228516 34.77246094 C58.05748047 33.60328125 58.02267578 32.43410156 57.98681641 31.22949219 C57.95866799 29.68132953 57.93136896 28.13315126 57.90478516 26.58496094 C57.87964844 25.81603516 57.85451172 25.04710938 57.82861328 24.25488281 C57.76847751 19.5843382 58.03804313 16.55288639 61.09228516 12.77246094 C64.23269344 10.67885542 64.97923676 10.51862408 68.56030273 10.49780273 C69.46166458 10.48827072 70.36302643 10.47873871 71.29170227 10.46891785 C72.26358994 10.46982925 73.2354776 10.47074066 74.23681641 10.47167969 C75.74063118 10.465252 75.74063118 10.465252 77.27482605 10.45869446 C79.39732101 10.45294892 81.51983567 10.45245253 83.64233398 10.45678711 C86.88185511 10.45993863 90.12045566 10.43651963 93.35986328 10.41113281 C95.42301317 10.40885893 97.48616552 10.40815673 99.54931641 10.40917969 C100.51513138 10.39996994 101.48094635 10.39076019 102.47602844 10.38127136 C107.76007704 10.41740725 111.54697917 10.76169872 116.09228516 13.77246094 C119.64363333 18.42595165 120.31310711 22.96307368 119.90087891 28.69189453 C116.79879328 54.14967984 116.79879328 54.14967984 123.50830078 77.49414062 C128.95399032 82.90221805 136.18799799 85.38607701 143.35595703 87.68457031 C147.95496877 89.51301395 149.90590641 92.39970345 152.09228516 96.77246094 C153.33972863 105.00367555 153.25477622 113.24966666 153.26928711 121.55419922 C153.27556245 123.1402094 153.28221017 124.72621815 153.28919983 126.31222534 C153.3100965 131.48906457 153.32058124 136.66590364 153.33056641 141.84277344 C153.33461785 143.63093963 153.33873488 145.41910568 153.34291649 147.20727158 C153.36192795 155.60232766 153.37617345 163.99737512 153.38452846 172.39244854 C153.3943186 182.06735779 153.42070123 191.74203935 153.46102935 201.41686833 C153.49118881 208.91009276 153.50599673 216.40325181 153.50930947 223.89653575 C153.51165792 228.36635989 153.52059363 232.8359396 153.54577065 237.30569839 C153.5690569 241.50668938 153.57328253 245.70727494 153.56300926 249.90831375 C153.56251411 251.44699961 153.56882856 252.98570552 153.58256531 254.52433014 C153.70415464 268.9532151 153.70415464 268.9532151 149.09228516 274.77246094 C147.15478516 276.5246582 147.15478516 276.5246582 145.09228516 277.77636719 C144.30208984 278.26379395 143.51189453 278.7512207 142.69775391 279.25341797 C141.83794922 279.75470215 140.97814453 280.25598633 140.09228516 280.77246094 C139.18091797 281.31112793 138.26955078 281.84979492 137.33056641 282.40478516 C134.26317375 284.19495073 131.17977411 285.95469994 128.09228516 287.70996094 C119.15873172 292.82437266 110.28143773 298.01613574 101.46728516 303.33496094 C92.31952771 308.85262171 83.12512912 314.28139182 73.8894043 319.65039062 C67.37886368 323.43582397 60.88467149 327.24730052 54.40478516 331.08496094 C44.34362053 337.04331648 34.25716601 342.95795446 24.16381836 348.86157227 C23.57630295 349.20567642 22.98878754 349.54978058 22.38346863 349.90431213 C20.67339988 350.90477303 18.96123176 351.90164274 17.24902344 352.8984375 C15.24829488 354.08618633 13.26469214 355.30368717 11.30664062 356.56054688 C3.53449138 361.52769874 -2.81555324 362.99853771 -11.9921875 361.56103516 C-21.85273735 358.89401322 -30.76160386 352.39313011 -39.34863281 346.98730469 C-44.8124032 343.56109591 -50.4303847 340.40230745 -56.03271484 337.20996094 C-58.1793966 335.97184747 -60.32523117 334.73226395 -62.47021484 333.49121094 C-66.80179991 330.98816604 -71.13516088 328.48824321 -75.47021484 325.99121094 C-86.95020689 319.37745902 -98.41539303 312.73981421 -109.8515625 306.05053711 C-116.22769813 302.32438104 -122.62375192 298.63464422 -129.03051758 294.96142578 C-146.1148702 285.15271267 -146.1148702 285.15271267 -154.34521484 280.14746094 C-154.98330078 279.77008789 -155.62138672 279.39271484 -156.27880859 279.00390625 C-159.97337938 276.71747824 -162.23921169 274.81080418 -163.90771484 270.77246094 C-165.18007251 262.44878522 -165.07033007 254.09873142 -165.0847168 245.69946289 C-165.09099178 244.08227394 -165.09763947 242.46508641 -165.10462952 240.84790039 C-165.12552852 235.56885761 -165.13601042 230.28981496 -165.14599609 225.01074219 C-165.1500473 223.18788323 -165.15416433 221.36502442 -165.15834618 219.54216576 C-165.17735731 210.98532908 -165.19160348 202.42850087 -165.19995815 193.87164718 C-165.20975138 184.00655826 -165.23614215 174.14169245 -165.27645904 164.2766822 C-165.30660323 156.6382517 -165.32142492 148.99988532 -165.32473916 141.36139649 C-165.32708916 136.80385689 -165.33604513 132.24655682 -165.36120033 127.68908119 C-165.38446012 123.40683872 -165.38872288 119.12499402 -165.37843895 114.84270477 C-165.37794317 113.27296056 -165.38427612 111.70319684 -165.397995 110.1335125 C-165.41569895 107.98768658 -165.40861741 105.84329124 -165.39546204 103.69746399 C-165.39785039 102.49791738 -165.40023874 101.29837076 -165.40269947 100.06247425 C-164.67744803 95.24194697 -162.43551018 92.10631792 -158.79980469 88.93212891 C-152.45939344 84.69131605 -145.97188719 80.7603322 -139.36251831 76.95239258 C-136.15633635 75.10394117 -132.95984341 73.23887947 -129.76318359 71.37402344 C-129.10759964 70.99179626 -128.45201569 70.60956909 -127.77656555 70.21575928 C-121.08800125 66.30809807 -114.46016295 62.30315654 -107.84521484 58.27246094 C-107.26978943 57.92207764 -106.69436401 57.57169434 -106.10150146 57.21069336 C-102.61216472 55.08555272 -99.12460201 52.95751612 -95.63763428 50.82849121 C-90.48042625 47.68027072 -85.3201716 44.53706633 -80.15771484 41.39746094 C-79.58889587 41.05138794 -79.0200769 40.70531494 -78.434021 40.34875488 C-71.56830842 36.17404894 -64.68331056 32.03364924 -57.77099609 27.93652344 C-57.08598526 27.53030258 -56.40097443 27.12408173 -55.69520569 26.70555115 C-52.25950916 24.66972768 -48.82037069 22.64004316 -45.37573242 20.61938477 C-39.4008588 17.10512934 -33.49529053 13.55731489 -27.74365234 9.68261719 C-9.57847309 -2.53090739 -9.57847309 -2.53090739 0 0 Z M-11.46240234 35.89355469 C-12.02674484 36.22440567 -12.59108734 36.55525665 -13.17253113 36.89613342 C-15.04534766 37.99613439 -16.91412131 39.10280357 -18.78271484 40.20996094 C-20.09700444 40.98483987 -21.4113774 41.75957743 -22.72583008 42.53417969 C-35.02809972 49.79689454 -47.23935043 57.20807882 -59.43261719 64.65185547 C-64.63429997 67.82706037 -69.84165093 70.99292822 -75.05014038 74.1569519 C-76.76925645 75.20178131 -78.48756508 76.2479291 -80.20581055 77.29418945 C-86.56024857 81.15935164 -92.93707308 84.98374249 -99.33740234 88.77246094 C-101.42972114 90.01452513 -103.52178837 91.25701223 -105.61383057 92.49954224 C-107.62775253 93.69221681 -109.64629892 94.87678419 -111.66503906 96.0612793 C-112.88678619 96.78623328 -114.10831506 97.51155526 -115.32958984 98.23730469 C-116.40821289 98.87273193 -117.48683594 99.50815918 -118.59814453 100.1628418 C-119.36030273 100.69401611 -120.12246094 101.22519043 -120.90771484 101.77246094 C-120.90771484 102.43246094 -120.90771484 103.09246094 -120.90771484 103.77246094 C-120.33666016 104.0929541 -119.76560547 104.41344727 -119.17724609 104.74365234 C-107.09397203 111.5320895 -95.06210837 118.39935001 -83.10058594 125.40014648 C-75.75942884 129.69598217 -68.40189404 133.96237886 -61.03271484 138.20996094 C-59.42468994 139.13711914 -59.42468994 139.13711914 -57.78417969 140.08300781 C-52.19561676 143.30418758 -46.60500716 146.52178903 -41.01318359 149.73730469 C-39.88348145 150.38771729 -38.7537793 151.03812988 -37.58984375 151.70825195 C-35.37058553 152.98542686 -33.15023389 154.26070399 -30.92871094 155.53393555 C-26.28920712 158.20134684 -21.67493001 160.88463773 -17.15380859 163.74902344 C-16.46440186 164.18230957 -15.77499512 164.6155957 -15.06469727 165.06201172 C-13.32042493 166.16918138 -11.5898655 167.29787899 -9.86083984 168.42871094 C-6.17230343 170.10709259 -4.74803562 170.01548668 -0.90771484 168.77246094 C1.82086956 167.40603925 4.38988245 165.84081749 6.96728516 164.20996094 C7.65564453 163.78521484 8.34400391 163.36046875 9.05322266 162.92285156 C10.73829467 161.88138344 12.41605547 160.82810177 14.09228516 159.77246094 C10.81877617 157.06328666 7.52982214 154.71932716 3.87353516 152.55761719 C2.86983887 151.96070068 1.86614258 151.36378418 0.83203125 150.7487793 C-0.23708496 150.11721924 -1.30620117 149.48565918 -2.40771484 148.83496094 C-11.34265485 143.51728261 -20.23394385 138.14219456 -29.05395508 132.63598633 C-33.73668198 129.71764804 -38.442529 126.84669953 -43.18505859 124.02636719 C-44.23290527 123.39996338 -45.28075195 122.77355957 -46.36035156 122.12817383 C-48.38463336 120.92024747 -50.41340543 119.71980416 -52.44726562 118.52807617 C-57.8364627 115.30280235 -62.02271226 112.54246611 -64.90771484 106.77246094 C-65.11083984 104.60058594 -65.11083984 104.60058594 -65.15771484 102.02246094 C-65.18349609 101.18199219 -65.20927734 100.34152344 -65.23583984 99.47558594 C-64.66686482 94.78831552 -63.00148487 91.63370438 -59.2824707 88.70532227 C-58.23969971 88.09454834 -57.19692871 87.48377441 -56.12255859 86.85449219 C-55.55353317 86.51504578 -54.98450775 86.17559937 -54.39823914 85.8258667 C-52.55547619 84.73085514 -50.70090918 83.65788412 -48.84521484 82.58496094 C-47.57202566 81.83443589 -46.29973076 81.08239178 -45.02832031 80.32885742 C-42.50028014 78.83194058 -39.96829834 77.34204475 -37.43359375 75.85644531 C-32.02869202 72.67702711 -26.71535762 69.34700179 -21.4152832 65.99633789 C-13.89442599 61.33532791 -6.78079858 59.29535963 2.09228516 60.77246094 C6.3503153 62.57170292 10.15469725 64.92446236 14.01806641 67.43310547 C16.27388498 68.88972278 18.55422451 70.30064902 20.84228516 71.70605469 C24.38986349 73.88607196 27.92951557 76.07809279 31.46337891 78.28027344 C37.14941431 81.81679484 42.86780924 85.29861301 48.59228516 88.77246094 C57.93318976 94.44496924 67.23942771 100.17144 76.52587891 105.93261719 C77.67805908 106.63862061 77.67805908 106.63862061 78.85351562 107.35888672 C80.3568686 108.30811395 81.83565724 109.29730113 83.28808594 110.32275391 C87.11425651 113.17811681 87.11425651 113.17811681 91.63525391 113.34277344 C92.44607422 112.82457031 93.25689453 112.30636719 94.09228516 111.77246094 C95.27393708 111.12049155 96.45770506 110.47234906 97.64306641 109.82714844 C98.89888751 109.10390068 100.152765 108.37726877 101.40478516 107.64746094 C102.04996094 107.27492188 102.69513672 106.90238281 103.35986328 106.51855469 C104.93904461 105.60613881 106.5159038 104.68970584 108.09228516 103.77246094 C106.78704256 99.85673316 105.29961491 99.40917028 101.78369141 97.32324219 C100.09409302 96.31064331 100.09409302 96.31064331 98.37036133 95.27758789 C97.13184847 94.54669101 95.89332274 93.81581593 94.65478516 93.08496094 C93.38114205 92.32451126 92.10811886 91.56302241 90.83569336 90.80053711 C88.87084203 89.62321785 86.90566091 88.44650016 84.93858337 87.27290344 C78.51386099 83.43866502 72.14395784 79.51893062 65.77978516 75.58496094 C57.62951217 70.55766674 49.4646416 65.55574878 41.27978516 60.58496094 C33.82201964 56.05480676 26.38424566 51.4941319 18.96728516 46.89746094 C18.10151855 46.36137207 17.23575195 45.8252832 16.34375 45.27294922 C12.54439001 42.91879857 8.74872287 40.55924526 4.96337891 38.18261719 C4.35316895 37.80153809 3.74295898 37.42045898 3.11425781 37.02783203 C1.53855087 36.04352152 -0.03432559 35.05468375 -1.60693359 34.06542969 C-5.77886286 31.72093294 -7.55832159 33.5957926 -11.46240234 35.89355469 Z M-13.53271484 96.14746094 C-14.23912109 96.55996094 -14.94552734 96.97246094 -15.67333984 97.39746094 C-17.45473812 98.46354871 -19.18617059 99.61219875 -20.90771484 100.77246094 C-20.90771484 101.43246094 -20.90771484 102.09246094 -20.90771484 102.77246094 C-18.64638222 104.42355161 -18.64638222 104.42355161 -15.69677734 106.12402344 C-14.5661084 106.80295654 -13.43543945 107.48188965 -12.27050781 108.18139648 C-11.0245939 108.92011344 -9.77866249 109.65880088 -8.53271484 110.39746094 C-6.61756649 111.54377598 -4.70399822 112.6926995 -2.79043579 113.84165955 C-1.47370948 114.63195559 -0.15646118 115.42138253 1.1612854 116.2099762 C7.88295808 120.23468398 14.5524716 124.34199921 21.21728516 128.45996094 C24.24167564 130.32789831 27.2659781 132.19501915 30.30322266 134.04199219 C32.17647188 135.20424626 34.02582712 136.40584139 35.85009766 137.64355469 C40.65873495 141.08273095 40.65873495 141.08273095 46.26416016 141.18652344 C47.11494141 140.59613281 47.96572266 140.00574219 48.84228516 139.39746094 C49.75107422 138.79933594 50.65986328 138.20121094 51.59619141 137.58496094 C52.41990234 136.98683594 53.24361328 136.38871094 54.09228516 135.77246094 C55.31958736 134.97790691 56.54834323 134.18558377 57.77978516 133.39746094 C58.54291016 132.86121094 59.30603516 132.32496094 60.09228516 131.77246094 C55.32774826 127.64386859 49.97977342 124.56522397 44.59228516 121.33496094 C42.51893241 120.08307872 40.44602543 118.83045797 38.37353516 117.57714844 C37.32552734 116.94389648 36.27751953 116.31064453 35.19775391 115.65820312 C30.47590252 112.79094054 25.78380629 109.87648781 21.09228516 106.95996094 C14.8759012 103.10569793 8.65771134 99.25473996 2.40478516 95.45996094 C1.78667969 95.08057373 1.16857422 94.70118652 0.53173828 94.31030273 C-5.57688582 90.62566624 -7.76059997 92.67567228 -13.53271484 96.14746094 Z M-134.90771484 129.77246094 C-134.90771484 171.68246094 -134.90771484 213.59246094 -134.90771484 256.77246094 C-128.96771484 260.07246094 -123.02771484 263.37246094 -116.90771484 266.77246094 C-113.06440138 268.9872935 -109.2298677 271.2097503 -105.40771484 273.45996094 C-103.35334283 274.66362456 -101.29864361 275.86672987 -99.24365234 277.06933594 C-98.20305664 277.67841797 -97.16246094 278.2875 -96.09033203 278.91503906 C-90.74880306 282.03243339 -85.39115192 285.12174754 -80.03271484 288.20996094 C-78.95747559 288.83 -77.88223633 289.45003906 -76.77441406 290.08886719 C-71.24849337 293.27433005 -65.71996643 296.45520378 -60.18896484 299.63183594 C-48.98770444 306.07131445 -37.82056267 312.55158029 -26.78320312 319.26928711 C-26.01862793 319.73310791 -25.25405273 320.19692871 -24.46630859 320.67480469 C-23.79913818 321.08206787 -23.13196777 321.48933105 -22.44458008 321.90893555 C-21.05622133 322.85410209 -21.05622133 322.85410209 -19.90771484 322.77246094 C-19.90771484 280.86246094 -19.90771484 238.95246094 -19.90771484 195.77246094 C-28.4769661 189.62807475 -28.4769661 189.62807475 -37.90771484 186.77246094 C-37.91651421 188.2934288 -37.91651421 188.2934288 -37.92549133 189.84512329 C-37.98274678 199.40890318 -38.05552323 208.97245631 -38.14342976 218.53600502 C-38.18812461 223.4525348 -38.22738276 228.36898188 -38.25415039 233.28564453 C-38.2801921 238.03202587 -38.3206008 242.77808884 -38.37090111 247.52427292 C-38.38756393 249.33347992 -38.39908185 251.14274198 -38.40532875 252.95201492 C-38.41497623 255.4896697 -38.44304275 258.02651105 -38.4753418 260.56396484 C-38.47318916 261.6817482 -38.47318916 261.6817482 -38.47099304 262.82211304 C-38.55556093 267.53142342 -39.44549138 270.75987721 -41.90771484 274.77246094 C-44.97468833 277.64774858 -47.89955113 278.07139278 -51.97021484 278.33496094 C-58.96002683 278.10227745 -63.9706151 275.24970597 -69.90771484 271.77246094 C-71.16284043 271.04966098 -72.41805295 270.32701197 -73.67333984 269.60449219 C-76.49494868 267.96812955 -79.30049102 266.30716621 -82.09912109 264.63183594 C-85.62786327 262.52160484 -89.18115599 260.45901049 -92.74755859 258.41308594 C-94.23376709 257.55372437 -94.23376709 257.55372437 -95.75 256.67700195 C-97.69460509 255.55285206 -99.6433689 254.43585828 -101.59667969 253.3269043 C-111.93722271 247.31125001 -111.93722271 247.31125001 -113.48938751 241.65145779 C-114.71210257 235.75353734 -115.13316989 230.28383718 -114.94091797 224.2746582 C-114.90186206 222.43055637 -114.86326787 220.58644471 -114.82507324 218.74232483 C-114.80168381 217.78064959 -114.77829437 216.81897434 -114.75419617 215.82815742 C-114.64178264 210.67669569 -114.60632586 205.52447724 -114.56005859 200.37207031 C-114.50028175 193.84168771 -114.4168208 187.31505037 -114.23242188 180.78686523 C-114.08466753 175.48331334 -114.02585489 170.18518256 -114.02561951 164.87965202 C-114.00965785 162.87026908 -113.9618453 160.86085929 -113.88050842 158.85305977 C-113.4292315 149.57640662 -113.4292315 149.57640662 -115.90771484 140.77246094 C-120.76703997 135.58938268 -127.3469818 132.32573609 -133.90771484 129.77246094 C-134.23771484 129.77246094 -134.56771484 129.77246094 -134.90771484 129.77246094 Z M110.77978516 136.20996094 C110.20217438 136.54336487 109.6245636 136.8767688 109.02944946 137.22027588 C99.45183134 142.75315042 89.97720396 148.44362525 80.53939819 154.21099854 C71.44601502 159.76633156 62.29467893 165.21219769 53.09228516 170.58496094 C50.680713 171.99362036 48.26923312 173.4024375 45.85791016 174.81152344 C45.28097916 175.1486586 44.70404816 175.48579376 44.1096344 175.83314514 C38.67047615 179.01423638 33.24973191 182.22529646 27.84228516 185.45996094 C27.07529297 185.91669189 26.30830078 186.37342285 25.51806641 186.84399414 C24.12493093 187.68009272 22.73987895 188.5299276 21.36630917 189.39779472 C19.09228516 190.77246094 19.09228516 190.77246094 16.74594212 191.91281319 C13.1379115 193.84864683 10.56640345 195.2922185 9.2786541 199.31269455 C8.98145011 202.55043402 8.97888466 205.67789023 9.07055664 208.92822266 C9.0692424 210.14829514 9.06792816 211.36836761 9.0665741 212.62541199 C9.07175977 215.95958004 9.1167656 219.28868868 9.17973971 222.62196112 C9.23613201 226.10915956 9.2412982 229.59643084 9.25196838 233.08401489 C9.27990467 239.68245642 9.35370531 246.27955052 9.44411379 252.87739956 C9.5448295 260.39111052 9.59422371 267.904887 9.63937271 275.41910529 C9.7333616 290.87100331 9.8915874 306.32155815 10.09228516 321.77246094 C11.86115416 320.80945283 13.62980433 319.84604275 15.39836121 318.88246155 C16.38330157 318.34600541 17.36824194 317.80954927 18.38302898 317.25683689 C21.1593621 315.73571011 23.91023703 314.17899811 26.64306641 312.58105469 C28.04419678 311.76302368 28.04419678 311.76302368 29.47363281 310.9284668 C30.44091309 310.36135986 31.40819336 309.79425293 32.40478516 309.20996094 C33.4416748 308.6035376 34.47856445 307.99711426 35.546875 307.37231445 C46.0815154 301.20536382 56.58905792 294.99270763 67.09228516 288.77246094 C80.86135346 280.62049722 94.65057607 272.50378062 108.4597168 264.41992188 C109.06235352 264.06703094 109.66499023 263.71414001 110.28588867 263.35055542 C111.92767513 262.38922512 113.5696655 261.42824311 115.21166992 260.46728516 C116.63757446 259.62834717 116.63757446 259.62834717 118.09228516 258.77246094 C118.9642966 258.34860454 119.83630804 257.92474813 120.73474407 257.4880476 C123.29422664 256.0054126 123.29422664 256.0054126 123.7075243 253.43552876 C123.70291533 252.50912681 123.69830637 251.58272486 123.69355774 250.62825012 C123.70386772 249.03178902 123.70386772 249.03178902 123.71438599 247.40307617 C123.69640961 246.23566895 123.67843323 245.06826172 123.65991211 243.86547852 C123.66064224 242.63609055 123.66137238 241.40670258 123.66212463 240.14006042 C123.65923546 236.76784609 123.63414401 233.39715762 123.59925485 230.02521348 C123.56802185 226.50185522 123.56506306 222.97847716 123.55912781 219.45500183 C123.54358021 212.78253707 123.50253989 206.11048137 123.45238036 199.43819684 C123.39651494 191.84219904 123.36900754 184.24618183 123.34390318 176.65002978 C123.2916244 161.0239365 123.20366495 145.39825144 123.09228516 129.77246094 C119.3030142 129.77246094 113.97615338 134.36139808 110.77978516 136.20996094 Z M-85.90771484 158.77246094 C-86.20972046 167.63002794 -86.44028378 176.48580984 -86.58127308 185.34741211 C-86.64896706 189.46311962 -86.740644 193.57529253 -86.88842773 197.68896484 C-87.0303256 201.66395311 -87.10752531 205.63555841 -87.141119 209.61288452 C-87.16503343 211.12516588 -87.21174753 212.6372734 -87.28220558 214.14810181 C-87.49551456 218.91428422 -87.45328491 223.19218673 -85.90771484 227.77246094 C-80.73189935 232.73715312 -74.54523682 235.20515292 -67.90771484 237.77246094 C-67.60570923 228.91489394 -67.37514591 220.05911204 -67.23415661 211.19750977 C-67.16646263 207.08180225 -67.07478568 202.96962934 -66.92700195 198.85595703 C-66.78510409 194.88096877 -66.70790438 190.90936347 -66.67431068 186.93203735 C-66.65039626 185.419756 -66.60368216 183.90764847 -66.53322411 182.39682007 C-66.31991512 177.63063766 -66.36214478 173.35273515 -67.90771484 168.77246094 C-73.08353034 163.80776875 -79.27019287 161.33976896 -85.90771484 158.77246094 Z " fill="#233B57" transform="translate(185.90771484375,-0.7724609375)"/>
<path d="M0 0 C4.65702344 2.45552145 8.31667974 4.95003921 10 10 C10.23828125 12.26953125 10.23828125 12.26953125 10.3125 14.8125 C10.36857422 16.05966797 10.36857422 16.05966797 10.42578125 17.33203125 C9.83676109 21.02286397 8.59294794 23.38371029 6 26 C2.40442178 28.60403887 -1.40081668 30.79409833 -5.25 33 C-6.34723389 33.64283936 -7.44446777 34.28567871 -8.57495117 34.94799805 C-10.8773204 36.29478464 -13.18179682 37.63653424 -15.49169922 38.97021484 C-18.95367343 40.96988117 -22.40140415 42.99287889 -25.84765625 45.01953125 C-29.97429691 47.4423556 -34.1022107 49.8628331 -38.23828125 52.26953125 C-39.06368408 52.75010986 -39.88908691 53.23068848 -40.73950195 53.72583008 C-46.37805676 56.90410176 -50.48079284 57.85480915 -57 57 C-61.65702344 54.54447855 -65.31667974 52.04996079 -67 47 C-67.23828125 44.73046875 -67.23828125 44.73046875 -67.3125 42.1875 C-67.34988281 41.35605469 -67.38726562 40.52460938 -67.42578125 39.66796875 C-66.83676109 35.97713603 -65.59294794 33.61628971 -63 31 C-59.40442178 28.39596113 -55.59918332 26.20590167 -51.75 24 C-50.65276611 23.35716064 -49.55553223 22.71432129 -48.42504883 22.05200195 C-46.1226796 20.70521536 -43.81820318 19.36346576 -41.50830078 18.02978516 C-38.04632657 16.03011883 -34.59859585 14.00712111 -31.15234375 11.98046875 C-27.02570309 9.5576444 -22.8977893 7.1371669 -18.76171875 4.73046875 C-17.5236145 4.00960083 -17.5236145 4.00960083 -16.26049805 3.27416992 C-10.62194324 0.09589824 -6.51920716 -0.85480915 0 0 Z " fill="#00454E" transform="translate(283,222)"/>
<path d="M0 0 C4.65702344 2.45552145 8.31667974 4.95003921 10 10 C10.23828125 12.26953125 10.23828125 12.26953125 10.3125 14.8125 C10.36857422 16.05966797 10.36857422 16.05966797 10.42578125 17.33203125 C9.83676109 21.02286397 8.59294794 23.38371029 6 26 C2.40442178 28.60403887 -1.40081668 30.79409833 -5.25 33 C-6.34723389 33.64283936 -7.44446777 34.28567871 -8.57495117 34.94799805 C-10.8773204 36.29478464 -13.18179682 37.63653424 -15.49169922 38.97021484 C-18.95367343 40.96988117 -22.40140415 42.99287889 -25.84765625 45.01953125 C-29.97429691 47.4423556 -34.1022107 49.8628331 -38.23828125 52.26953125 C-39.06368408 52.75010986 -39.88908691 53.23068848 -40.73950195 53.72583008 C-46.37805676 56.90410176 -50.48079284 57.85480915 -57 57 C-61.65702344 54.54447855 -65.31667974 52.04996079 -67 47 C-67.23828125 44.73046875 -67.23828125 44.73046875 -67.3125 42.1875 C-67.34988281 41.35605469 -67.38726562 40.52460938 -67.42578125 39.66796875 C-66.83676109 35.97713603 -65.59294794 33.61628971 -63 31 C-59.40442178 28.39596113 -55.59918332 26.20590167 -51.75 24 C-50.65276611 23.35716064 -49.55553223 22.71432129 -48.42504883 22.05200195 C-46.1226796 20.70521536 -43.81820318 19.36346576 -41.50830078 18.02978516 C-38.04632657 16.03011883 -34.59859585 14.00712111 -31.15234375 11.98046875 C-27.02570309 9.5576444 -22.8977893 7.1371669 -18.76171875 4.73046875 C-17.5236145 4.00960083 -17.5236145 4.00960083 -16.26049805 3.27416992 C-10.62194324 0.09589824 -6.51920716 -0.85480915 0 0 Z " fill="#0C3F53" transform="translate(283,172)"/>
</svg>
