<?xml version="1.0" standalone="no"?>
<!DOCTYPE svg PUBLIC "-//W3C//DTD SVG 20010904//EN"
 "http://www.w3.org/TR/2001/REC-SVG-20010904/DTD/svg10.dtd">
<svg version="1.0" xmlns="http://www.w3.org/2000/svg"
 width="360.000000pt" height="360.000000pt" viewBox="0 0 360.000000 360.000000"
 preserveAspectRatio="xMidYMid meet">

<g transform="translate(0.000000,360.000000) scale(0.100000,-0.100000)"
fill="#000000" stroke="none">
<path d="M1761 3574 c-19 -8 -360 -211 -759 -451 -552 -332 -728 -443 -743
-467 -19 -30 -19 -53 -13 -871 7 -889 6 -883 53 -912 41 -25 1418 -821 1448
-837 44 -22 76 -20 131 9 26 13 362 210 746 438 620 366 702 417 718 449 18
34 18 68 12 867 -7 762 -9 833 -25 859 -10 18 -68 60 -145 107 -71 43 -137 85
-146 93 -16 14 -18 39 -18 261 0 280 -4 317 -34 336 -15 9 -86 14 -243 18
-279 8 -261 18 -265 -150 -2 -66 -5 -120 -8 -118 -3 1 -138 84 -300 183 -163
99 -308 186 -324 191 -35 14 -44 13 -85 -5z m649 -609 c327 -201 596 -368 597
-373 3 -9 -244 -155 -254 -149 -4 2 -200 122 -435 266 -234 144 -440 266 -457
272 -59 21 -115 -2 -364 -152 -227 -136 -237 -143 -253 -184 -18 -48 -9 -99
24 -128 9 -8 188 -119 397 -247 209 -128 384 -236 388 -240 5 -4 -47 -41 -116
-83 l-124 -75 -617 356 c-339 196 -616 359 -616 362 0 7 1212 738 1225 739 6
1 278 -163 605 -364z m370 221 c0 -29 3 -81 7 -116 l6 -63 -41 23 -42 24 0 93
0 93 35 0 35 0 0 -54z m-608 -662 c194 -119 354 -218 356 -219 2 -2 -50 -35
-116 -75 l-119 -71 -356 218 c-196 120 -356 220 -357 223 0 6 221 140 232 140
4 0 166 -97 360 -216z m-1542 -233 l105 -61 5 -508 c5 -498 5 -508 26 -537 26
-36 495 -311 548 -320 48 -10 100 17 122 63 16 33 17 72 11 465 l-5 428 41
-24 c23 -14 79 -46 123 -71 l82 -47 7 -552 c3 -304 5 -607 3 -674 l-3 -123
-605 350 -605 350 -6 323 c-3 177 -7 481 -8 675 l-1 353 28 -15 c15 -8 74 -42
132 -75z m2497 -876 l-2 -370 -595 -351 -595 -351 -7 296 c-4 163 -7 462 -5
664 l2 368 595 355 595 354 7 -297 c4 -164 7 -464 5 -668z m-1909 146 l2 -390
-125 72 -125 72 0 226 c0 124 -3 301 -7 393 l-6 167 129 -75 129 -75 3 -390z"/>
<path d="M2731 1845 c-18 -8 -72 -38 -120 -66 -375 -224 -391 -234 -407 -267
-21 -46 -11 -94 26 -126 62 -51 96 -45 248 45 377 224 392 234 408 267 29 62
0 125 -69 151 -36 14 -45 13 -86 -4z"/>
<path d="M2731 1345 c-18 -8 -72 -38 -120 -66 -375 -224 -391 -234 -407 -267
-21 -46 -11 -94 26 -126 62 -51 96 -45 248 45 377 224 392 234 408 267 29 62
0 125 -69 151 -36 14 -45 13 -86 -4z"/>
</g>
</svg>
